<svg xmlns="http://www.w3.org/2000/svg" id="Layer_1" viewBox="0 0 512 380"><defs><style>.cls-1{fill:#00c9ff;}.cls-2{fill:#fff;}</style></defs><path class="cls-1" d="M40.13,7.97h0s-33.21,0-33.21,0V306.88s0,0,0,0h0s99.63,0,99.63,0h0V140.87l99.63,74.61,33.21,24.87V74.4h-33.21v99.59L106.55,99.38l-33.21-24.87v199.16H40.13V41.19H471.87c18.34,0,33.21-14.87,33.21-33.21H40.13Z"></path><path class="cls-2" d="M505.09,74.4h-33.21s-166.06,0-166.06,0h-33.21V240.45h166.06v-66.42h0v-33.21h-99.63v33.21h66.42v33.21h-99.63V107.61h166.06v166.06H172.85c-18.34,0-33.21,14.87-33.21,33.21H471.87s33.21,0,33.21,0V74.4Z"></path><g><path class="cls-2" d="M33.68,370.51h-7.29l-12.19-18.45v18.45H6.91v-29.92h7.29l12.19,18.54v-18.54h7.29v29.92Z"></path><path class="cls-2" d="M46.25,346.43v6.05h9.76v5.63h-9.76v6.56h11.04v5.84h-18.33v-29.92h18.33v5.84h-11.04Z"></path><path class="cls-2" d="M80.35,370.51l-6.09-9.16-5.37,9.16h-8.27l9.59-15.21-9.8-14.7h8.48l6.01,9.04,5.29-9.04h8.27l-9.5,15.09,9.89,14.83h-8.48Z"></path><path class="cls-2" d="M112.36,350.05c-.54-.99-1.31-1.76-2.32-2.28-1.01-.53-2.19-.79-3.56-.79-2.36,0-4.25,.78-5.67,2.32-1.42,1.55-2.13,3.62-2.13,6.2,0,2.76,.75,4.91,2.24,6.46,1.49,1.55,3.54,2.32,6.16,2.32,1.79,0,3.3-.46,4.54-1.36,1.24-.91,2.14-2.22,2.71-3.92h-9.25v-5.37h15.85v6.78c-.54,1.82-1.46,3.51-2.75,5.07-1.29,1.56-2.93,2.83-4.92,3.79-1.99,.97-4.23,1.45-6.73,1.45-2.96,0-5.59-.65-7.91-1.94-2.32-1.29-4.12-3.09-5.41-5.39-1.29-2.3-1.94-4.93-1.94-7.88s.65-5.59,1.94-7.91c1.29-2.32,3.09-4.12,5.39-5.41,2.3-1.29,4.93-1.94,7.88-1.94,3.58,0,6.6,.87,9.06,2.6,2.46,1.73,4.08,4.13,4.88,7.2h-8.06Z"></path><path class="cls-2" d="M132.26,346.43v6.05h9.76v5.63h-9.76v6.56h11.04v5.84h-18.33v-29.92h18.33v5.84h-11.04Z"></path><path class="cls-2" d="M174.79,370.51h-7.29l-12.19-18.45v18.45h-7.29v-29.92h7.29l12.19,18.54v-18.54h7.29v29.92Z"></path><path class="cls-2" d="M196.4,340.59v29.92h-7.29v-29.92h7.29Z"></path><path class="cls-2" d="M208.1,368.85c-2.34-1.31-4.21-3.13-5.58-5.48-1.38-2.34-2.07-4.98-2.07-7.91s.69-5.55,2.07-7.88c1.38-2.33,3.24-4.15,5.58-5.46,2.34-1.31,4.92-1.96,7.74-1.96s5.39,.65,7.74,1.96c2.34,1.31,4.19,3.13,5.54,5.46,1.35,2.33,2.02,4.96,2.02,7.88s-.68,5.56-2.05,7.91-3.21,4.17-5.54,5.48c-2.33,1.31-4.9,1.96-7.71,1.96s-5.39-.65-7.74-1.96Zm13.47-7.08c1.43-1.59,2.15-3.69,2.15-6.31s-.72-4.75-2.15-6.33c-1.44-1.58-3.35-2.37-5.73-2.37s-4.34,.78-5.78,2.34c-1.44,1.56-2.15,3.68-2.15,6.35s.72,4.75,2.15,6.33c1.43,1.58,3.36,2.37,5.78,2.37s4.3-.79,5.73-2.39Z"></path><path class="cls-2" d="M256.71,340.59v5.84h-7.93v24.08h-7.29v-24.08h-7.93v-5.84h23.14Z"></path><path class="cls-2" d="M274.35,369.74c-1.73-.71-3.12-1.76-4.16-3.15-1.04-1.39-1.58-3.07-1.64-5.03h7.76c.11,1.11,.5,1.95,1.15,2.54,.65,.58,1.51,.87,2.56,.87s1.93-.25,2.56-.75c.62-.5,.94-1.18,.94-2.07,0-.74-.25-1.35-.75-1.83-.5-.48-1.11-.88-1.83-1.19s-1.75-.67-3.09-1.07c-1.93-.6-3.51-1.19-4.73-1.79-1.22-.6-2.27-1.48-3.15-2.64-.88-1.16-1.32-2.68-1.32-4.56,0-2.78,1.01-4.96,3.03-6.54,2.02-1.58,4.65-2.37,7.88-2.37s5.95,.79,7.97,2.37c2.02,1.58,3.1,3.77,3.24,6.58h-7.88c-.06-.97-.41-1.73-1.07-2.28-.65-.55-1.49-.83-2.51-.83-.88,0-1.59,.23-2.13,.7-.54,.47-.81,1.14-.81,2.02,0,.97,.45,1.72,1.36,2.26,.91,.54,2.33,1.12,4.26,1.75,1.93,.65,3.5,1.28,4.71,1.88,1.21,.6,2.25,1.46,3.13,2.6,.88,1.14,1.32,2.6,1.32,4.39s-.43,3.25-1.3,4.64c-.87,1.39-2.12,2.5-3.77,3.33s-3.59,1.24-5.84,1.24-4.15-.36-5.88-1.07Z"></path><path class="cls-2" d="M302.04,368.85c-2.34-1.31-4.21-3.13-5.58-5.48-1.38-2.34-2.07-4.98-2.07-7.91s.69-5.55,2.07-7.88c1.38-2.33,3.24-4.15,5.58-5.46,2.34-1.31,4.92-1.96,7.74-1.96s5.39,.65,7.74,1.96c2.34,1.31,4.19,3.13,5.54,5.46,1.35,2.33,2.02,4.96,2.02,7.88s-.68,5.56-2.05,7.91-3.21,4.17-5.54,5.48c-2.33,1.31-4.9,1.96-7.71,1.96s-5.39-.65-7.74-1.96Zm13.47-7.08c1.43-1.59,2.15-3.69,2.15-6.31s-.72-4.75-2.15-6.33c-1.44-1.58-3.35-2.37-5.73-2.37s-4.34,.78-5.78,2.34c-1.44,1.56-2.15,3.68-2.15,6.35s.72,4.75,2.15,6.33c1.43,1.58,3.36,2.37,5.78,2.37s4.3-.79,5.73-2.39Z"></path><path class="cls-2" d="M336.41,364.88h9.55v5.63h-16.83v-29.92h7.29v24.29Z"></path><path class="cls-2" d="M356.61,340.59v17.9c0,1.79,.44,3.17,1.32,4.14s2.17,1.45,3.88,1.45,3.01-.48,3.92-1.45c.91-.97,1.36-2.35,1.36-4.14v-17.9h7.29v17.86c0,2.67-.57,4.93-1.7,6.78-1.14,1.85-2.66,3.24-4.58,4.18s-4.06,1.41-6.41,1.41-4.47-.46-6.33-1.38c-1.86-.92-3.33-2.32-4.41-4.18-1.08-1.86-1.62-4.13-1.62-6.8v-17.86h7.29Z"></path><path class="cls-2" d="M401.02,340.59v5.84h-7.93v24.08h-7.29v-24.08h-7.93v-5.84h23.14Z"></path><path class="cls-2" d="M411.97,340.59v29.92h-7.29v-29.92h7.29Z"></path><path class="cls-2" d="M423.67,368.85c-2.34-1.31-4.21-3.13-5.58-5.48-1.38-2.34-2.07-4.98-2.07-7.91s.69-5.55,2.07-7.88c1.38-2.33,3.24-4.15,5.58-5.46,2.34-1.31,4.92-1.96,7.74-1.96s5.39,.65,7.74,1.96c2.35,1.31,4.19,3.13,5.54,5.46s2.02,4.96,2.02,7.88-.68,5.56-2.05,7.91-3.21,4.17-5.54,5.48c-2.33,1.31-4.9,1.96-7.71,1.96s-5.39-.65-7.74-1.96Zm13.47-7.08c1.44-1.59,2.15-3.69,2.15-6.31s-.72-4.75-2.15-6.33c-1.44-1.58-3.35-2.37-5.73-2.37s-4.34,.78-5.78,2.34c-1.44,1.56-2.15,3.68-2.15,6.35s.72,4.75,2.15,6.33c1.44,1.58,3.36,2.37,5.78,2.37s4.3-.79,5.73-2.39Z"></path><path class="cls-2" d="M477.52,370.51h-7.29l-12.19-18.45v18.45h-7.29v-29.92h7.29l12.19,18.54v-18.54h7.29v29.92Z"></path><path class="cls-2" d="M487.75,369.74c-1.73-.71-3.12-1.76-4.15-3.15-1.04-1.39-1.58-3.07-1.64-5.03h7.76c.11,1.11,.5,1.95,1.15,2.54s1.51,.87,2.56,.87,1.93-.25,2.56-.75c.62-.5,.94-1.18,.94-2.07,0-.74-.25-1.35-.75-1.83-.5-.48-1.11-.88-1.83-1.19s-1.76-.67-3.09-1.07c-1.93-.6-3.51-1.19-4.73-1.79-1.22-.6-2.27-1.48-3.15-2.64-.88-1.16-1.32-2.68-1.32-4.56,0-2.78,1.01-4.96,3.03-6.54,2.02-1.58,4.65-2.37,7.88-2.37s5.95,.79,7.97,2.37c2.02,1.58,3.1,3.77,3.24,6.58h-7.88c-.06-.97-.41-1.73-1.07-2.28-.65-.55-1.49-.83-2.51-.83-.88,0-1.59,.23-2.13,.7-.54,.47-.81,1.14-.81,2.02,0,.97,.45,1.72,1.36,2.26,.91,.54,2.33,1.12,4.26,1.75,1.93,.65,3.5,1.28,4.71,1.88,1.21,.6,2.25,1.46,3.13,2.6,.88,1.14,1.32,2.6,1.32,4.39s-.43,3.25-1.3,4.64c-.87,1.39-2.12,2.5-3.77,3.33-1.65,.82-3.59,1.24-5.84,1.24s-4.15-.36-5.88-1.07Z"></path></g></svg>